<?xml version="1.0" encoding="UTF-8" standalone="no" ?>
<!DOCTYPE svg PUBLIC "-//W3C//DTD SVG 1.1//EN" "http://www.w3.org/Graphics/SVG/1.1/DTD/svg11.dtd">
<svg xmlns="http://www.w3.org/2000/svg" xmlns:xlink="http://www.w3.org/1999/xlink" version="1.1" width="1024" height="1024" viewBox="0 0 1024 1024" xml:space="preserve">
<desc>Created with Fabric.js 2.4.6</desc>
<defs>
</defs>
<rect x="0" y="0" width="100%" height="100%" fill="rgba(255,255,255,1)"></rect>
<g transform="matrix(1.57 0 0 1 512 512)" id="background-logo"  >
<rect style="stroke: none; stroke-width: 1; stroke-dasharray: none; stroke-linecap: butt; stroke-dashoffset: 0; stroke-linejoin: miter; stroke-miterlimit: 10; fill: rgb(255,255,255); fill-rule: nonzero; opacity: 1;"  x="-325.5" y="-512" rx="0" ry="0" width="651" height="1024" />
</g>
<g transform="matrix(0.41 0 0 -0.41 512 386.29)" id="logo-logo"  >
<path style="stroke: none; stroke-width: 1; stroke-dasharray: none; stroke-linecap: butt; stroke-dashoffset: 0; stroke-linejoin: miter; stroke-miterlimit: 10; fill: rgb(0,0,0); fill-rule: nonzero; opacity: 1;"  transform=" translate(-2387.28, -8355.43)" d="m 2387.27 8749.92 c -217.86 0 -394.48 -176.62 -394.48 -394.5 c 0 -217.87 176.62 -394.48 394.48 -394.48 c 28.98 0 57.17 3.21 84.36 9.14 v 181.26 c -13.15 6.8 -23.07 19.98 -23.07 39.76 v 56.93 c 0 17.5 21.67 17.38 21.67 0 v -51.98 c 0 -8.67 13.16 -8.67 13.16 0 v 51.98 c 0 17.5 21.63 17.38 21.63 0 v -51.98 c 0 -8.67 13.19 -8.67 13.19 0 v 51.98 c 0 17.5 21.67 17.5 21.67 0 v -56.93 c 0 -19.78 -9.93 -32.96 -23.08 -39.76 V 7982.8 c 28.21 9.8 54.98 22.73 79.88 38.35 c 0 88.53 0 200.36 0 260.09 h 43.2 l -200.33 179.3 l -200.25 -179.3 h 43.23 c 0 -64.94 0 -129.9 0 -194.86 h 70.44 v 114.81 c -12.83 10.41 -21.4 29.41 -21.4 51.17 c 0 32.94 19.69 59.55 44 59.55 c 24.2 0 43.93 -26.61 43.93 -59.55 c 0 -21.76 -8.59 -40.76 -21.38 -51.17 v -159.97 c -53.57 0 -107.12 0 -160.76 0 v 194.95 h -43.04 c -49.13 0 -51.16 19.26 -18.64 48.42 l 263.87 236.22 l 137.79 -123.35 v 29.55 h 57.62 v -81.08 l 68.5 -61.34 c 32.49 -29.16 30.55 -48.42 -18.58 -48.42 h -43.12 V 8054.1 c 85.61 72.35 140.02 180.45 140.02 301.32 c 0 217.88 -176.63 394.5 -394.51 394.5" stroke-linecap="round" />
</g>
<g transform="matrix(1.57 0 0 1.57 515.14 654.99)"  >
<path style="stroke: none; stroke-width: 1; stroke-dasharray: none; stroke-linecap: butt; stroke-dashoffset: 0; stroke-linejoin: miter; stroke-miterlimit: 10; fill: rgb(0,0,0); fill-rule: nonzero; opacity: ;"  transform=" translate(-242.44, 29)" d="M 26.1 11.02 Q 23.08 11.48 22.16 11.48 L 22.16 11.48 Q 19.84 11.48 16.59 10.56 L 16.59 10.56 Q 15.08 10.09 14.38 9.51 Q 13.69 8.93 12.82 7.83 Q 11.95 6.73 11.48 6.15 L 11.48 6.15 Q 9.4 3.25 9.4 1.04 L 9.4 1.04 Q 9.4 -0.7 11.02 -0.23 L 11.02 -0.23 Q 12.18 0.35 13.57 2.09 L 13.57 2.09 Q 14.96 3.48 16.59 4.12 Q 18.21 4.76 20.53 4.76 L 20.53 4.76 Q 21.34 4.76 23.66 4.52 L 23.66 4.52 Q 26.45 4.06 30.16 2.78 Q 33.87 1.51 35.61 0.12 L 35.61 0.12 Q 41.18 -3.71 44.72 -6.03 Q 48.26 -8.35 49.18 -8.93 L 49.18 -8.93 Q 49.42 -9.51 51.62 -10.32 L 51.62 -10.32 L 54.75 -13.34 Q 57.77 -16.59 58.7 -17.28 L 58.7 -17.28 Q 58.81 -18.1 59.1 -18.97 Q 59.39 -19.84 59.39 -20.3 L 59.39 -20.3 Q 60.78 -21.81 63.57 -27.55 Q 66.35 -33.29 67.4 -37.47 L 67.4 -37.47 Q 68.44 -42.92 68.44 -47.1 L 68.44 -47.1 Q 68.44 -54.17 65.95 -58.99 Q 63.45 -63.8 58.7 -67.86 L 58.7 -67.86 Q 56.26 -69.83 50.63 -72.21 Q 45.01 -74.59 44.08 -74.24 L 44.08 -74.24 Q 43.5 -74.12 40.95 -67.57 Q 38.4 -61.02 33.99 -48.72 L 33.99 -48.72 L 30.28 -38.4 Q 29.81 -36.54 29.23 -34.92 Q 28.65 -33.29 28.3 -32.02 L 28.3 -32.02 Q 26.8 -27.72 26.8 -27.14 L 26.8 -27.14 Q 25.52 -25.17 24.77 -21.98 Q 24.01 -18.79 23.08 -11.14 L 23.08 -11.14 Q 22.04 -7.31 22.16 -7.66 L 22.16 -7.66 Q 21.69 -5.68 21.34 -4.41 Q 21 -3.13 20.65 -3.25 L 20.65 -3.25 L 20.18 -2.78 Q 20.18 -2.09 19.14 -2.09 L 19.14 -2.09 Q 18.21 -2.09 17.05 -2.61 Q 15.89 -3.13 15.2 -3.83 L 15.2 -3.83 Q 14.73 -5.45 14.73 -6.15 L 14.73 -6.15 Q 14.73 -7.66 15.66 -10.79 L 15.66 -10.79 Q 16.59 -14.73 18.73 -21.87 Q 20.88 -29 22.39 -33.52 L 22.39 -33.52 Q 23.2 -35.5 24.71 -40.95 L 24.71 -40.95 Q 25.98 -45.24 27.55 -49.76 Q 29.12 -54.29 29.81 -55.45 L 29.81 -55.45 Q 30.04 -56.26 31.38 -60.09 Q 32.71 -63.92 34.57 -68.56 L 34.57 -68.56 L 35.38 -72.38 L 34.1 -72.96 Q 33.06 -72.62 32.25 -72.62 L 32.25 -72.62 Q 31.67 -72.62 30.97 -72.96 L 30.97 -72.96 Q 29.81 -72.62 27.78 -73.95 Q 25.75 -75.28 25.52 -76.44 L 25.52 -76.44 Q 25.29 -76.79 25.23 -77.49 Q 25.17 -78.18 25.17 -78.42 L 25.17 -78.42 Q 25.4 -79.58 29.81 -80.56 Q 34.22 -81.55 39.44 -81.55 L 39.44 -81.55 Q 41.64 -81.55 42.8 -81.43 L 42.8 -81.43 Q 44.89 -81.32 46.81 -80.74 Q 48.72 -80.16 51.5 -79 L 51.5 -79 L 54.29 -77.95 Q 58 -76.56 62.23 -73.08 Q 66.47 -69.6 69.77 -64.9 Q 73.08 -60.2 74.24 -55.33 L 74.24 -55.33 Q 74.59 -53.82 74.94 -51.16 Q 75.28 -48.49 75.28 -46.4 L 75.28 -46.4 Q 75.28 -43.96 74.82 -43.38 L 74.82 -43.38 Q 74.47 -42.92 74.47 -42.22 Q 74.47 -41.53 74.94 -41.41 L 74.94 -41.41 Q 74.7 -40.72 74.12 -38.86 Q 73.54 -37 72.85 -34.92 L 72.85 -34.92 Q 72.15 -27.61 66.35 -17.75 L 66.35 -17.75 Q 65.77 -17.75 65.42 -17.57 Q 65.08 -17.4 65.54 -17.28 L 65.54 -17.28 Q 65.54 -16.7 64.26 -15.08 L 64.26 -15.08 Q 63.92 -14.85 62.81 -13.4 Q 61.71 -11.95 61.25 -11.6 L 61.25 -11.6 Q 61.13 -10.79 60.55 -10.27 Q 59.97 -9.74 59.51 -9.74 L 59.51 -9.74 Q 59.51 -9.74 59.33 -9.69 Q 59.16 -9.63 59.16 -9.28 L 59.16 -9.28 Q 57.07 -6.26 51.56 -1.86 Q 46.05 2.55 41.76 4.41 L 41.76 4.41 Q 40.6 5.22 39.03 5.92 Q 37.47 6.61 36.89 6.84 L 36.89 6.84 Q 35.96 7.66 32.19 9.11 Q 28.42 10.56 26.1 11.02 L 26.1 11.02 Z M 79.46 -4.18 Q 79.11 -4.87 78.36 -5.63 Q 77.6 -6.38 77.6 -6.61 L 77.6 -6.61 Q 77.6 -7.89 77.02 -8.58 L 77.02 -8.58 Q 76.79 -8.82 76.79 -9.63 L 76.79 -9.63 Q 76.79 -11.48 78.59 -15.95 Q 80.39 -20.42 83.29 -25.64 L 83.29 -25.64 Q 83.98 -26.33 85.09 -28.07 Q 86.19 -29.81 86.54 -30.04 L 86.54 -30.04 Q 86.54 -30.51 86.88 -30.91 Q 87.23 -31.32 87.7 -31.32 L 87.7 -31.32 L 87.7 -32.02 Q 87.7 -33.06 91.52 -37.06 Q 95.35 -41.06 97.79 -42.57 L 97.79 -42.57 Q 100.69 -44.54 103.7 -44.54 L 103.7 -44.54 Q 105.79 -44.54 107.3 -43.38 L 107.3 -43.38 Q 107.88 -42.69 112.64 -38.4 L 112.64 -38.4 L 116.93 -34.57 L 114.84 -28.77 Q 113.8 -25.64 113.8 -23.08 L 113.8 -23.08 Q 113.8 -18.68 116.35 -14.62 L 116.35 -14.62 Q 116.93 -13.34 118.67 -12.18 Q 120.41 -11.02 122.15 -10.79 L 122.15 -10.79 Q 124.7 -10.32 124.7 -8.24 L 124.7 -8.24 Q 124.7 -5.92 122.61 -5.45 L 122.61 -5.45 Q 122.15 -5.34 121.22 -5.34 L 121.22 -5.34 Q 114.38 -5.34 109.39 -14.96 L 109.39 -14.96 Q 108.92 -15.66 108.17 -17.52 Q 107.42 -19.37 107.3 -20.07 L 107.3 -20.07 Q 106.6 -19.14 105.56 -17.86 Q 104.52 -16.59 103.59 -15.66 L 103.59 -15.66 Q 90.94 -3.02 83.64 -3.02 L 83.64 -3.02 Q 81.32 -3.02 79.46 -4.18 L 79.46 -4.18 Z M 83.64 -10.67 Q 83.64 -10.09 84.85 -10.32 Q 86.07 -10.56 87.87 -11.48 Q 89.67 -12.41 91.52 -13.92 L 91.52 -13.92 Q 101.5 -22.5 105.91 -28.88 L 105.91 -28.88 L 108.46 -33.06 Q 107.3 -35.5 106.02 -36.6 Q 104.75 -37.7 103.7 -37.7 L 103.7 -37.7 Q 101.27 -37.7 96.05 -31.61 Q 90.83 -25.52 86.54 -17.28 L 86.54 -17.28 Q 85.49 -15.31 84.68 -13.28 Q 83.87 -11.25 83.64 -10.67 L 83.64 -10.67 Z M 160.89 -42.8 Q 162.75 -40.95 162.75 -38.98 L 162.75 -38.98 Q 162.75 -36.89 159.96 -31.67 L 159.96 -31.67 Q 159.04 -29 157.93 -26.68 Q 156.83 -24.36 156.25 -23.66 L 156.25 -23.66 L 153.58 -17.52 Q 151.84 -13.69 149.29 -8.58 L 149.29 -8.58 Q 146.16 -2.09 144.88 1.04 L 144.88 1.04 L 143.38 3.48 Q 137.58 12.76 134.44 16.47 L 134.44 16.47 Q 128.06 22.16 124.58 23.08 L 124.58 23.08 Q 123.08 23.55 120.99 23.55 L 120.99 23.55 Q 117.16 23.55 113.74 21.87 Q 110.32 20.18 109.85 17.98 L 109.85 17.98 Q 109.74 17.17 110.43 16.24 Q 111.13 15.31 111.94 15.31 L 111.94 15.31 Q 112.52 15.31 112.87 15.78 L 112.87 15.78 Q 113.8 16.47 115.59 17.11 Q 117.39 17.75 119.48 17.75 L 119.48 17.75 Q 120.29 17.75 121.68 17.52 L 121.68 17.52 Q 124 17.05 126.56 14.73 Q 129.11 12.41 131.2 9.63 L 131.2 9.63 Q 135.14 3.83 139.66 -4.87 L 139.66 -4.87 Q 138.04 -5.34 136.53 -7.13 Q 135.02 -8.93 134.15 -10.9 Q 133.28 -12.88 133.52 -13.8 L 133.52 -13.8 L 133.52 -15.08 Q 132.47 -15.08 131.83 -19.02 Q 131.2 -22.97 131.2 -28.19 L 131.2 -28.19 Q 131.2 -30.16 131.43 -33.18 L 131.43 -33.18 Q 131.89 -35.03 131.95 -37.76 Q 132.01 -40.48 132.01 -41.3 L 132.01 -41.3 L 132.01 -41.76 Q 132.01 -43.15 132.3 -43.73 Q 132.59 -44.31 133.28 -44.78 L 133.28 -44.78 Q 134.21 -45.24 135.14 -45.24 L 135.14 -45.24 Q 138.39 -45.24 138.39 -36.66 L 138.39 -36.66 Q 138.39 -35.38 138.16 -31.67 L 138.16 -31.67 Q 138.04 -30.04 138.04 -26.8 L 138.04 -26.8 Q 138.04 -20.76 139.08 -16.12 Q 140.13 -11.48 142.22 -9.74 L 142.22 -9.74 L 142.91 -11.37 Q 144.19 -14.73 144.88 -15.66 L 144.88 -15.66 Q 146.51 -19.02 146.74 -19.95 L 146.74 -19.95 Q 146.97 -20.76 148.02 -22.62 L 148.02 -22.62 L 149.52 -25.75 Q 149.76 -26.45 151.03 -30.22 Q 152.31 -33.99 153.58 -36.31 L 153.58 -36.31 Q 154.05 -37.24 154.98 -39.03 Q 155.9 -40.83 156.48 -41.64 Q 157.06 -42.46 157.76 -42.69 L 157.76 -42.69 Q 158.69 -43.5 159.27 -43.5 L 159.27 -43.5 Q 159.73 -43.5 160.89 -42.8 L 160.89 -42.8 Z M 176.9 -0.81 Q 175.04 -1.16 173.13 -3.31 Q 171.22 -5.45 170.64 -7.31 L 170.64 -7.31 Q 170.64 -7.54 170.4 -7.83 Q 170.17 -8.12 170.06 -8.24 L 170.06 -8.24 Q 169.59 -8.58 169.59 -12.06 L 169.59 -12.06 Q 169.59 -14.85 169.88 -17.86 Q 170.17 -20.88 170.64 -22.74 L 170.64 -22.74 L 172.72 -28.88 L 174.35 -33.52 L 177.48 -40.25 L 172.84 -41.53 Q 172.03 -41.64 171.51 -42.34 Q 170.98 -43.04 170.98 -43.62 L 170.98 -43.62 Q 170.98 -44.54 171.97 -45.88 Q 172.96 -47.21 173.54 -47.21 L 173.54 -47.21 Q 173.88 -47.1 175.39 -47.1 L 175.39 -47.1 Q 178.87 -47.1 180.61 -47.44 L 180.61 -47.44 Q 181.77 -47.91 182.24 -49.3 L 182.24 -49.3 Q 182.7 -50.23 183.34 -51.62 Q 183.98 -53.01 184.56 -54.17 L 184.56 -54.17 Q 184.9 -54.87 185.66 -56.32 Q 186.41 -57.77 187.57 -59.62 L 187.57 -59.62 Q 187.8 -59.97 188.62 -61.31 Q 189.43 -62.64 190.59 -63.57 L 190.59 -63.57 Q 191.4 -64.38 192.56 -64.38 L 192.56 -64.38 Q 193.72 -64.38 195.58 -62.87 L 195.58 -62.87 Q 195.81 -62.52 196.21 -61.94 Q 196.62 -61.36 196.62 -60.9 L 196.62 -60.9 Q 196.62 -60.44 195.69 -58.93 L 195.69 -58.93 Q 195 -57.54 194.36 -56.43 Q 193.72 -55.33 193.26 -54.52 L 193.26 -54.52 Q 191.86 -52.2 191.28 -51.04 L 191.28 -51.04 Q 190.12 -49.53 190.12 -48.72 L 190.12 -48.72 Q 190.12 -47.91 191.63 -47.91 L 191.63 -47.91 Q 193.26 -47.91 197.08 -48.6 L 197.08 -48.6 Q 198.71 -48.84 199.29 -48.84 L 199.29 -48.84 Q 203.35 -48.84 203.7 -45.47 L 203.7 -45.47 Q 203.81 -44.78 203.81 -43.85 L 203.81 -43.85 Q 203.81 -42.22 202.71 -41.88 Q 201.61 -41.53 197.78 -41.53 L 197.78 -41.53 Q 194.07 -40.95 190.12 -40.95 L 190.12 -40.95 Q 189.43 -40.95 188.56 -40.89 Q 187.69 -40.83 186.76 -40.6 L 186.76 -40.6 Q 185.83 -40.37 185.43 -39.9 Q 185.02 -39.44 184.56 -38.4 L 184.56 -38.4 Q 184.21 -38.05 182.93 -35.73 L 182.93 -35.73 Q 181.31 -32.36 180.84 -31.67 L 180.84 -31.67 Q 177.71 -22.39 176.2 -12.64 L 176.2 -12.64 Q 175.97 -10.79 175.97 -10.32 L 175.97 -10.32 Q 175.97 -8.58 177.13 -7.89 Q 178.29 -7.19 181.08 -7.19 L 181.08 -7.19 Q 185.02 -7.19 187.92 -8 L 187.92 -8 Q 191.4 -9.51 193.14 -10.56 L 193.14 -10.56 Q 194.18 -11.14 195.05 -11.66 Q 195.92 -12.18 196.27 -12.41 L 196.27 -12.41 Q 196.62 -13.11 197.08 -13.11 L 197.08 -13.11 Q 198.01 -13.11 198.71 -11.25 L 198.71 -11.25 Q 198.71 -9.4 197.9 -8 Q 197.08 -6.61 193.84 -4.76 L 193.84 -4.76 Q 187.11 -0.46 180.38 -0.46 L 180.38 -0.46 Q 178.52 -0.46 176.9 -0.81 L 176.9 -0.81 Z M 214.14 -1.74 Q 212.74 -1.74 211.93 -2.2 Q 211.12 -2.67 209.61 -3.94 L 209.61 -3.94 Q 205.78 -8 205.78 -11.37 L 205.78 -11.37 Q 205.78 -12.18 205.9 -12.53 L 205.9 -12.53 Q 206.25 -13.34 206.19 -14.15 Q 206.13 -14.96 206.13 -15.2 L 206.13 -15.2 Q 205.67 -15.66 205.67 -15.83 Q 205.67 -16.01 205.9 -16.18 Q 206.13 -16.36 206.25 -16.59 L 206.25 -16.59 Q 206.94 -16.59 206.71 -17.86 L 206.71 -17.86 Q 206.48 -18.79 207.64 -21.98 Q 208.8 -25.17 210.54 -27.84 L 210.54 -27.84 Q 211.82 -29.93 214.31 -33.06 Q 216.8 -36.19 218.78 -37.82 L 218.78 -37.82 Q 221.56 -40.25 223.76 -41.41 Q 225.97 -42.57 228.64 -43.15 L 228.64 -43.15 Q 230.96 -43.73 231.77 -43.73 L 231.77 -43.73 Q 232.58 -43.73 233.22 -43.33 Q 233.86 -42.92 234.9 -41.88 L 234.9 -41.88 Q 238.03 -40.48 239.25 -38.34 Q 240.47 -36.19 240.47 -31.67 L 240.47 -31.67 Q 240.47 -24.13 234.32 -15.31 L 234.32 -15.31 Q 231.65 -11.48 229.33 -9.45 Q 227.01 -7.42 223.18 -5.1 L 223.18 -5.1 Q 220.75 -3.36 218.72 -2.61 Q 216.69 -1.86 214.14 -1.74 L 214.14 -1.74 Z M 225.27 -14.04 Q 228.06 -17.17 229.74 -19.95 Q 231.42 -22.74 232.93 -27.03 L 232.93 -27.03 Q 233.51 -29 233.51 -31.78 L 233.51 -31.78 Q 233.51 -35.26 232.58 -35.73 L 232.58 -35.73 Q 231.42 -36.31 230.26 -36.31 L 230.26 -36.31 Q 227.71 -36.31 224.92 -33.99 L 224.92 -33.99 Q 221.56 -31.09 218.89 -26.85 Q 216.22 -22.62 213.44 -16.36 L 213.44 -16.36 Q 212.28 -13.92 212.28 -11.6 L 212.28 -11.6 Q 212.28 -9.86 213.15 -8.82 Q 214.02 -7.77 215.53 -7.77 L 215.53 -7.77 Q 219.36 -7.77 225.27 -14.04 L 225.27 -14.04 Z M 288.14 -5.34 Q 285.82 -5.34 284.32 -6.32 Q 282.81 -7.31 281.76 -9.63 L 281.76 -9.63 Q 280.72 -13.34 280.72 -17.05 L 280.72 -17.05 Q 280.72 -18.79 281.07 -19.49 L 281.07 -19.49 Q 281.53 -19.95 281.47 -21.52 Q 281.42 -23.08 281.42 -23.78 L 281.42 -23.78 Q 281.3 -26.45 279.79 -26.45 L 279.79 -26.45 Q 278.75 -26.45 277.47 -25.64 L 277.47 -25.64 Q 270.98 -21.58 266.57 -18.68 Q 262.16 -15.78 258.1 -12.18 L 258.1 -12.18 Q 256.48 -10.32 255.66 -8.93 Q 254.85 -7.54 254.5 -7.02 Q 254.16 -6.5 253.58 -6.5 L 253.58 -6.5 Q 252.88 -6.26 252.65 -6.26 L 252.65 -6.26 Q 252.07 -6.26 251.26 -6.9 Q 250.44 -7.54 250.21 -7.77 L 250.21 -7.77 Q 249.75 -8.24 248.7 -9.34 Q 247.66 -10.44 247.54 -10.9 L 247.54 -10.9 Q 247.54 -11.83 248.3 -15.2 Q 249.05 -18.56 249.52 -19.49 L 249.52 -19.49 Q 249.86 -19.49 250.56 -20.94 Q 251.26 -22.39 251.84 -23.2 L 251.84 -23.2 Q 252.18 -24.94 254.85 -31.2 L 254.85 -31.2 Q 256.48 -33.99 257.11 -35.84 Q 257.75 -37.7 257.98 -40.48 L 257.98 -40.48 L 257.98 -40.72 Q 257.98 -41.18 258.33 -41.47 Q 258.68 -41.76 259.03 -41.76 L 259.03 -41.76 Q 259.84 -42.34 260.54 -42.34 L 260.54 -42.34 Q 262.04 -42.34 263.55 -40.48 L 263.55 -40.48 Q 265.29 -38.28 265.29 -35.84 L 265.29 -35.84 Q 265.29 -32.83 261.46 -26.33 L 261.46 -26.33 Q 261.12 -25.52 260.48 -24.01 Q 259.84 -22.5 259.84 -21.92 L 259.84 -21.92 L 266.34 -26.33 Q 267.26 -27.38 271.32 -30.04 Q 275.38 -32.71 277.01 -33.06 L 277.01 -33.06 Q 279.79 -34.34 280.49 -34.34 L 280.49 -34.34 Q 281.88 -34.34 284.26 -32.25 Q 286.64 -30.16 287.1 -28.77 L 287.1 -28.77 Q 287.1 -27.49 287.33 -26.91 L 287.33 -26.91 Q 287.91 -24.59 287.91 -21.46 L 287.91 -21.46 Q 287.91 -19.37 287.62 -17.69 Q 287.33 -16.01 286.87 -15.78 L 286.87 -15.78 Q 286.87 -15.66 286.98 -15.43 Q 287.1 -15.2 287.45 -15.2 L 287.45 -15.2 L 287.45 -14.62 Q 286.52 -14.62 287.22 -12.64 Q 287.91 -10.67 289.07 -9.63 L 289.07 -9.63 Q 290.23 -8.47 290.23 -7.31 L 290.23 -7.31 Q 290.23 -5.92 288.14 -5.34 L 288.14 -5.34 Z M 341.85 11.02 Q 338.84 11.48 337.91 11.48 L 337.91 11.48 Q 335.59 11.48 332.34 10.56 L 332.34 10.56 Q 330.83 10.09 330.14 9.51 Q 329.44 8.93 328.57 7.83 Q 327.7 6.73 327.24 6.15 L 327.24 6.15 Q 325.15 3.25 325.15 1.04 L 325.15 1.04 Q 325.15 -0.7 326.77 -0.23 L 326.77 -0.23 Q 327.93 0.35 329.32 2.09 L 329.32 2.09 Q 330.72 3.48 332.34 4.12 Q 333.96 4.76 336.28 4.76 L 336.28 4.76 Q 337.1 4.76 339.42 4.52 L 339.42 4.52 Q 342.2 4.06 345.91 2.78 Q 349.62 1.51 351.36 0.12 L 351.36 0.12 Q 356.93 -3.71 360.47 -6.03 Q 364.01 -8.35 364.94 -8.93 L 364.94 -8.93 Q 365.17 -9.51 367.37 -10.32 L 367.37 -10.32 L 370.5 -13.34 Q 373.52 -16.59 374.45 -17.28 L 374.45 -17.28 Q 374.56 -18.1 374.85 -18.97 Q 375.14 -19.84 375.14 -20.3 L 375.14 -20.3 Q 376.54 -21.81 379.32 -27.55 Q 382.1 -33.29 383.15 -37.47 L 383.15 -37.47 Q 384.19 -42.92 384.19 -47.1 L 384.19 -47.1 Q 384.19 -54.17 381.7 -58.99 Q 379.2 -63.8 374.45 -67.86 L 374.45 -67.86 Q 372.01 -69.83 366.39 -72.21 Q 360.76 -74.59 359.83 -74.24 L 359.83 -74.24 Q 359.25 -74.12 356.7 -67.57 Q 354.15 -61.02 349.74 -48.72 L 349.74 -48.72 L 346.03 -38.4 Q 345.56 -36.54 344.98 -34.92 Q 344.4 -33.29 344.06 -32.02 L 344.06 -32.02 Q 342.55 -27.72 342.55 -27.14 L 342.55 -27.14 Q 341.27 -25.17 340.52 -21.98 Q 339.76 -18.79 338.84 -11.14 L 338.84 -11.14 Q 337.79 -7.31 337.91 -7.66 L 337.91 -7.66 Q 337.44 -5.68 337.1 -4.41 Q 336.75 -3.13 336.4 -3.25 L 336.4 -3.25 L 335.94 -2.78 Q 335.94 -2.09 334.89 -2.09 L 334.89 -2.09 Q 333.96 -2.09 332.8 -2.61 Q 331.64 -3.13 330.95 -3.83 L 330.95 -3.83 Q 330.48 -5.45 330.48 -6.15 L 330.48 -6.15 Q 330.48 -7.66 331.41 -10.79 L 331.41 -10.79 Q 332.34 -14.73 334.49 -21.87 Q 336.63 -29 338.14 -33.52 L 338.14 -33.52 Q 338.95 -35.5 340.46 -40.95 L 340.46 -40.95 Q 341.74 -45.24 343.3 -49.76 Q 344.87 -54.29 345.56 -55.45 L 345.56 -55.45 Q 345.8 -56.26 347.13 -60.09 Q 348.46 -63.92 350.32 -68.56 L 350.32 -68.56 L 351.13 -72.38 L 349.86 -72.96 Q 348.81 -72.62 348 -72.62 L 348 -72.62 Q 347.42 -72.62 346.72 -72.96 L 346.72 -72.96 Q 345.56 -72.62 343.53 -73.95 Q 341.5 -75.28 341.27 -76.44 L 341.27 -76.44 Q 341.04 -76.79 340.98 -77.49 Q 340.92 -78.18 340.92 -78.42 L 340.92 -78.42 Q 341.16 -79.58 345.56 -80.56 Q 349.97 -81.55 355.19 -81.55 L 355.19 -81.55 Q 357.4 -81.55 358.56 -81.43 L 358.56 -81.43 Q 360.64 -81.32 362.56 -80.74 Q 364.47 -80.16 367.26 -79 L 367.26 -79 L 370.04 -77.95 Q 373.75 -76.56 377.99 -73.08 Q 382.22 -69.6 385.53 -64.9 Q 388.83 -60.2 389.99 -55.33 L 389.99 -55.33 Q 390.34 -53.82 390.69 -51.16 Q 391.04 -48.49 391.04 -46.4 L 391.04 -46.4 Q 391.04 -43.96 390.57 -43.38 L 390.57 -43.38 Q 390.22 -42.92 390.22 -42.22 Q 390.22 -41.53 390.69 -41.41 L 390.69 -41.41 Q 390.46 -40.72 389.88 -38.86 Q 389.3 -37 388.6 -34.92 L 388.6 -34.92 Q 387.9 -27.61 382.1 -17.75 L 382.1 -17.75 Q 381.52 -17.75 381.18 -17.57 Q 380.83 -17.4 381.29 -17.28 L 381.29 -17.28 Q 381.29 -16.7 380.02 -15.08 L 380.02 -15.08 Q 379.67 -14.85 378.57 -13.4 Q 377.46 -11.95 377 -11.6 L 377 -11.6 Q 376.88 -10.79 376.3 -10.27 Q 375.72 -9.74 375.26 -9.74 L 375.26 -9.74 Q 375.26 -9.74 375.09 -9.69 Q 374.91 -9.63 374.91 -9.28 L 374.91 -9.28 Q 372.82 -6.26 367.31 -1.86 Q 361.8 2.55 357.51 4.41 L 357.51 4.41 Q 356.35 5.22 354.79 5.92 Q 353.22 6.61 352.64 6.84 L 352.64 6.84 Q 351.71 7.66 347.94 9.11 Q 344.17 10.56 341.85 11.02 L 341.85 11.02 Z M 415.98 -4.06 Q 413.08 -1.51 409.02 -1.51 L 409.02 -1.51 Q 406.12 -1.51 403.51 -2.9 Q 400.9 -4.29 399.16 -6.73 L 399.16 -6.73 Q 397.65 -8.58 396.95 -10.9 Q 396.26 -13.22 396.26 -16.59 L 396.26 -16.59 Q 396.26 -17.75 396.49 -21.23 L 396.49 -21.23 Q 396.84 -25.52 399.33 -30.16 Q 401.82 -34.8 405.54 -38.45 Q 409.25 -42.11 412.84 -43.5 L 412.84 -43.5 Q 414.7 -44.66 416.21 -44.66 L 416.21 -44.66 Q 417.02 -44.66 417.83 -44.54 Q 418.64 -44.43 419.57 -44.31 L 419.57 -44.31 Q 422.12 -43.96 423.46 -43.33 Q 424.79 -42.69 425.72 -41.41 L 425.72 -41.41 Q 428.62 -38.51 428.62 -34.68 L 428.62 -34.68 Q 428.16 -31.9 425.02 -28.3 Q 421.89 -24.71 417.48 -22.5 L 417.48 -22.5 Q 415.4 -21.81 412.73 -21.81 L 412.73 -21.81 Q 409.13 -21.81 406.93 -23.32 L 406.93 -23.32 Q 405.88 -23.66 405.3 -23.66 L 405.3 -23.66 Q 404.26 -23.66 403.74 -22.27 Q 403.22 -20.88 402.75 -17.17 L 402.75 -17.17 Q 402.64 -16.36 402.64 -14.85 L 402.64 -14.85 Q 402.64 -8.93 406.58 -8.35 L 406.58 -8.35 Q 409.25 -7.77 410.41 -7.77 L 410.41 -7.77 Q 411.8 -7.77 413.54 -8.7 L 413.54 -8.7 L 415.74 -9.98 Q 416.44 -10.32 417.02 -10.9 Q 417.6 -11.48 418.06 -11.95 L 418.06 -11.95 Q 418.3 -12.18 418.76 -12.7 Q 419.22 -13.22 419.63 -13.4 Q 420.04 -13.57 420.38 -13.57 L 420.38 -13.57 Q 420.85 -13.57 421.43 -13.05 Q 422.01 -12.53 422.36 -12.3 L 422.36 -12.3 Q 423.4 -12.3 422.82 -10.85 Q 422.24 -9.4 420.33 -7.48 Q 418.41 -5.57 415.98 -4.06 L 415.98 -4.06 Z M 415.86 -28.65 Q 417.83 -29.46 419.86 -31.55 Q 421.89 -33.64 421.89 -35.03 L 421.89 -35.03 Q 421.89 -36.42 420.85 -37.35 Q 419.8 -38.28 417.95 -38.28 L 417.95 -38.28 Q 416.56 -38.28 415.86 -38.05 L 415.86 -38.05 Q 414.24 -37.58 412.03 -35.55 Q 409.83 -33.52 408.2 -31.44 Q 406.58 -29.35 406.93 -29 L 406.93 -29 Q 407.51 -27.96 411.45 -27.96 L 411.45 -27.96 Q 414.12 -27.96 415.86 -28.65 L 415.86 -28.65 Z M 437.9 0 Q 437.55 0.12 436.74 0.12 L 436.74 0.12 Q 434.88 0.12 433.84 -1.74 Q 432.8 -3.6 432.8 -6.84 L 432.8 -6.84 Q 432.8 -9.51 433.49 -12.99 L 433.49 -12.99 Q 434.77 -16.36 434.77 -17.86 L 434.77 -17.86 Q 435.12 -20.07 437.15 -25.81 Q 439.18 -31.55 439.76 -32.71 L 439.76 -32.71 Q 440.22 -32.71 440.57 -33.47 Q 440.92 -34.22 440.92 -35.15 L 440.92 -35.15 Q 440.92 -36.19 441.32 -37.29 Q 441.73 -38.4 442.19 -38.86 L 442.19 -38.86 Q 442.19 -39.21 442.48 -40.14 Q 442.77 -41.06 442.77 -41.41 L 442.77 -41.41 Q 442.77 -41.64 443.06 -42.28 Q 443.35 -42.92 443.35 -43.27 L 443.35 -43.27 Q 445.21 -46.86 449.85 -59.45 Q 454.49 -72.04 454.49 -73.43 L 454.49 -73.43 Q 454.49 -75.28 456.34 -75.28 L 456.34 -75.28 Q 456.92 -75.86 458.2 -75.86 L 458.2 -75.86 L 460.06 -74.01 Q 460.87 -73.2 461.1 -72.33 Q 461.33 -71.46 461.33 -69.72 L 461.33 -69.72 Q 461.33 -67.98 460.87 -66.7 Q 460.4 -65.42 458.55 -61.48 L 458.55 -61.48 Q 458.2 -60.67 457.62 -59.57 Q 457.04 -58.46 456.34 -56.84 L 456.34 -56.84 Q 456.11 -56.26 454.49 -52.66 L 454.49 -52.66 Q 453.33 -50.34 453.33 -50 L 453.33 -50 Q 453.33 -49.65 452.86 -48.55 Q 452.4 -47.44 452.05 -46.28 L 452.05 -46.28 Q 451.12 -44.43 449.09 -39.73 Q 447.06 -35.03 447.06 -34.57 L 447.06 -34.57 Q 447.06 -33.29 446.48 -32.71 L 446.48 -32.71 Q 446.14 -32.71 446.02 -32.19 Q 445.9 -31.67 445.9 -31.44 L 445.9 -31.44 Q 445.9 -30.28 444.05 -25.29 L 444.05 -25.29 L 443 -21.92 Q 440.8 -14.38 439.93 -10.9 Q 439.06 -7.42 439.06 -4.99 L 439.06 -4.99 Q 439.06 -2.09 438.89 -1.28 Q 438.71 -0.46 437.9 0 L 437.9 0 Z M 466.55 -50.81 Q 465.74 -51.62 465.16 -53.59 Q 464.58 -55.56 465.16 -55.56 L 465.16 -55.56 Q 466.09 -55.68 467.31 -57.59 Q 468.52 -59.51 468.41 -60.78 L 468.41 -60.78 Q 468.41 -61.25 468.76 -61.65 Q 469.1 -62.06 469.57 -62.18 L 469.57 -62.18 Q 470.5 -62.76 471.19 -62.76 L 471.19 -62.76 Q 473.16 -62.76 474.79 -59.97 L 474.79 -59.97 Q 475.48 -58.46 475.48 -57.3 L 475.48 -57.3 Q 475.48 -56.26 474.9 -55.16 Q 474.32 -54.06 472.82 -52.32 L 472.82 -52.32 Q 470.84 -49.65 469.1 -49.65 L 469.1 -49.65 Q 467.94 -49.65 466.55 -50.81 L 466.55 -50.81 Z M 455.3 -3.71 Q 453.68 -5.34 453.68 -8.35 L 453.68 -8.35 Q 453.68 -9.98 454.26 -11.14 L 454.26 -11.14 Q 454.26 -11.72 454.49 -12.53 Q 454.72 -13.34 454.72 -13.57 L 454.72 -13.57 Q 454.6 -14.27 455.65 -17.4 L 455.65 -17.4 Q 457.74 -22.04 461.22 -33.76 L 461.22 -33.76 Q 461.22 -34.34 461.68 -34.74 Q 462.14 -35.15 463.07 -35.26 L 463.07 -35.26 Q 464 -35.5 464.35 -35.5 L 464.35 -35.5 Q 465.04 -35.5 465.57 -34.97 Q 466.09 -34.45 467.02 -33.06 L 467.02 -33.06 Q 467.71 -32.36 467.71 -30.97 L 467.71 -30.97 Q 467.71 -28.77 466.2 -25.64 L 466.2 -25.64 Q 464.7 -22.27 464.23 -19.84 L 464.23 -19.84 Q 462.84 -16.7 462.03 -14.04 L 462.03 -14.04 Q 461.8 -13.34 461.33 -11.25 Q 460.87 -9.16 460.06 -7.89 L 460.06 -7.89 Q 459.36 -4.64 458.78 -3.36 Q 458.2 -2.09 457.5 -2.09 L 457.5 -2.09 Q 456.69 -2.09 455.3 -3.71 L 455.3 -3.71 Z" stroke-linecap="round" />
</g>
</svg>